<svg xmlns="http://www.w3.org/2000/svg" height="256" width="256" viewBox="0 0 256 256"><path d="M128 38.172a90.78 90.78 0 0 0-11.715.761v107.946h99.541a90.163 90.163 0 0 0 1.986-18.862c0-49.607-40.205-89.845-89.812-89.845zM70.718 58.788c-19.89 16.475-32.53 41.384-32.53 69.229 0 6.467.69 12.783 1.986 18.862h30.544v-88.09zM45.866 164.451c5.665 12.764 14.23 23.962 24.852 32.76v-32.76H45.866zm70.42 0v52.616c3.831.499 7.746.761 11.714.761 36.633 0 68.127-21.932 82.101-53.377h-93.816z" opacity=".5" fill="red"/></svg>