<svg id="Layer_1" data-name="Layer 1" xmlns="http://www.w3.org/2000/svg" xmlns:xlink="http://www.w3.org/1999/xlink" viewBox="0 0 104.44 64.22"><defs><style>.cls-1,.cls-2{fill:none;stroke-miterlimit:10;stroke-width:1.5px}.cls-1{stroke:url(#linear-gradient)}.cls-2{stroke:url(#linear-gradient-2)}</style><linearGradient id="linear-gradient" x1="101.28" y1="79.9" x2="98.68" y2="117.15" gradientUnits="userSpaceOnUse"><stop offset=".13" stop-color="red"/><stop offset=".41" stop-color="#fd0100"/><stop offset=".51" stop-color="#f60300"/><stop offset=".58" stop-color="#eb0700"/><stop offset=".64" stop-color="#da0c00"/><stop offset=".69" stop-color="#c41300"/><stop offset=".74" stop-color="#a81c00"/><stop offset=".78" stop-color="#892700"/><stop offset=".79" stop-color="#7f2a00"/><stop offset=".88" stop-color="#812900"/><stop offset=".91" stop-color="#882700"/><stop offset=".93" stop-color="#932300"/><stop offset=".95" stop-color="#a41e00"/><stop offset=".97" stop-color="#ba1700"/><stop offset=".98" stop-color="#d60e00"/><stop offset="1" stop-color="#f50300"/><stop offset="1" stop-color="red"/></linearGradient><linearGradient id="linear-gradient-2" x1="102.22" y1="66.46" x2="97.53" y2="133.52" xlink:href="#linear-gradient"/></defs><title>Website Logo</title><path class="cls-1" d="M127.12 93.28q6.09 0 6.09-2.24a7.69 7.69 0 0 0-3.56-6.34 15.46 15.46 0 0 0-17.23 0 8.54 8.54 0 0 0-3.17 4 18.32 18.32 0 0 1 .15 2.3H90.6a18.34 18.34 0 0 1 .15-2.34 8.54 8.54 0 0 0-3.17-4A14.13 14.13 0 0 0 79 82.08q-7.49 0-9.83 1.28a4.33 4.33 0 0 0-2.34 4.1q0 3.14 21.31 8.06 20.47 4.74 21.27 16.09a8.73 8.73 0 0 0 3.05 3.69 15.47 15.47 0 0 0 17.23 0 7.69 7.69 0 0 0 3.56-6.34q0-2.24-6.09-2.24h-12.21V93.28z" transform="translate(-47.78 -67.89)"/><path class="cls-2" d="M146.17 100q5.3-4.75 5.3-9 0-9.27-8.92-15.84T121 68.64q-12.26 0-21 6.22-8.78-6.21-21-6.22-12.6 0-21.52 5.22t-8.92 13.6q0 12.1 21.31 17 18.68 4.32 21 7.26c.08.49.17 1 .29 1.46a4.23 4.23 0 0 1-2.31 3.43q-2.34 1.28-9.83 1.28a14.13 14.13 0 0 1-8.61-2.62 7.69 7.69 0 0 1-3.62-6.27H48.53q0 9.27 8.92 15.84T79 131.36q12.6 0 21.52-4.77c.31-.17.61-.34.91-.52a35.92 35.92 0 0 0 19.57 5.29q12.6 0 21.52-6.56t8.95-15.8q0-4.21-5.3-9zm-19.05 6.72q6.09 0 6.09 2.24a7.69 7.69 0 0 1-3.56 6.34 15.47 15.47 0 0 1-17.23 0 8.73 8.73 0 0 1-3.05-3.69q-.8-11.35-21.27-16.09-21.31-4.93-21.31-8.06a4.33 4.33 0 0 1 2.34-4.1q2.34-1.28 9.83-1.28a14.13 14.13 0 0 1 8.61 2.62 8.54 8.54 0 0 1 3.17 4 18.34 18.34 0 0 0-.14 2.3h18.8a18.32 18.32 0 0 0-.15-2.34 8.54 8.54 0 0 1 3.17-4 15.46 15.46 0 0 1 17.23 0 7.69 7.69 0 0 1 3.56 6.34q0 2.24-6.09 2.24h-12.17v13.44z" transform="translate(-47.78 -67.89)"/></svg>